<svg width="258" height="36" viewBox="0 0 258 36" fill="none" xmlns="http://www.w3.org/2000/svg">
<path d="M14.744 16.616C16.888 16.84 18.664 17.448 20.072 18.44C21.48 19.432 22.504 20.616 23.144 21.992C23.816 23.336 24.104 24.776 24.008 26.312C23.912 27.848 23.448 29.256 22.616 30.536C21.784 31.816 20.568 32.888 18.968 33.752C17.368 34.584 15.4 35 13.064 35H0.44C0.984 34.936 1.48 34.84 1.928 34.712C2.376 34.584 2.744 34.36 3.032 34.04C3.352 33.72 3.592 33.272 3.752 32.696C3.944 32.12 4.04 31.336 4.04 30.344V6.056C4.04 5.064 3.944 4.28 3.752 3.704C3.592 3.128 3.352 2.68 3.032 2.36C2.744 2.04 2.376 1.816 1.928 1.688C1.48 1.56 0.984 1.464 0.44 1.4H11.768C13.72 1.4 15.368 1.736 16.712 2.408C18.088 3.048 19.16 3.864 19.928 4.856C20.696 5.848 21.16 6.952 21.32 8.168C21.48 9.384 21.336 10.568 20.888 11.72C20.472 12.84 19.752 13.848 18.728 14.744C17.704 15.64 16.376 16.264 14.744 16.616ZM7.88 16.52H11.768C13.016 16.52 14.056 16.168 14.888 15.464C15.752 14.728 16.408 13.816 16.856 12.728C17.304 11.64 17.528 10.456 17.528 9.176C17.56 7.896 17.368 6.712 16.952 5.624C16.568 4.536 15.944 3.64 15.08 2.936C14.216 2.2 13.128 1.832 11.816 1.832H10.232C9.176 1.96 8.52 2.296 8.264 2.84C8.008 3.384 7.88 4.36 7.88 5.768V16.52ZM7.88 30.536C7.88 31.432 7.912 32.152 7.976 32.696C8.04 33.208 8.216 33.608 8.504 33.896C8.792 34.184 9.224 34.376 9.8 34.472C10.376 34.536 11.176 34.568 12.2 34.568H12.632C14.264 34.568 15.608 34.136 16.664 33.272C17.752 32.408 18.552 31.32 19.064 30.008C19.608 28.696 19.88 27.288 19.88 25.784C19.88 24.248 19.592 22.824 19.016 21.512C18.472 20.2 17.64 19.112 16.52 18.248C15.432 17.384 14.056 16.952 12.392 16.952H7.88V30.536ZM37.3299 28.52C37.3299 30.504 37.6179 31.992 38.1939 32.984C38.8019 33.944 39.7139 34.616 40.9299 35H29.8419C31.0579 34.616 31.9539 33.944 32.5299 32.984C33.1379 31.992 33.4419 30.504 33.4419 28.52V21.992L27.8739 7.784C27.4259 6.632 27.0099 5.656 26.6259 4.856C26.2419 4.056 25.8419 3.416 25.4259 2.936C25.0099 2.424 24.5459 2.056 24.0339 1.832C23.5219 1.576 22.8979 1.432 22.1619 1.4H33.3459C31.8099 1.464 30.9139 1.864 30.6579 2.6C30.4339 3.336 30.5939 4.424 31.1379 5.864L37.1379 21.56L42.6099 7.304C43.3779 5.288 43.6659 3.816 43.4739 2.888C43.2819 1.96 42.3059 1.464 40.5459 1.4H49.1379C48.4019 1.464 47.7459 1.608 47.1699 1.832C46.6259 2.024 46.1139 2.344 45.6339 2.792C45.1859 3.24 44.7539 3.832 44.3379 4.568C43.9539 5.272 43.5379 6.184 43.0899 7.304L37.3299 22.04V28.52ZM62.4088 30.344C62.4088 31.336 62.4888 32.12 62.6488 32.696C62.8408 33.272 63.0808 33.72 63.3688 34.04C63.6888 34.36 64.0728 34.584 64.5208 34.712C64.9688 34.84 65.4488 34.936 65.9608 35H54.9208C55.4648 34.936 55.9608 34.84 56.4088 34.712C56.8568 34.584 57.2248 34.36 57.5128 34.04C57.8328 33.72 58.0728 33.272 58.2328 32.696C58.4248 32.12 58.5208 31.336 58.5208 30.344V1.832H58.4728C56.6168 1.832 55.1448 2.168 54.0568 2.84C52.9688 3.48 52.1208 4.232 51.5128 5.096C50.9048 5.96 50.4728 6.824 50.2168 7.688C49.9928 8.552 49.8168 9.176 49.6888 9.56L51.0808 1.4H69.8008L71.2408 9.56C71.1128 9.176 70.9208 8.552 70.6648 7.688C70.4088 6.824 69.9768 5.96 69.3688 5.096C68.7928 4.232 67.9448 3.48 66.8248 2.84C65.7368 2.168 64.2808 1.832 62.4568 1.832H62.4088V30.344ZM94.3535 34.952V35H73.3775C73.9215 34.936 74.4175 34.84 74.8655 34.712C75.3135 34.584 75.6815 34.36 75.9695 34.04C76.2895 33.72 76.5295 33.272 76.6895 32.696C76.8815 32.12 76.9775 31.336 76.9775 30.344V6.056C76.9775 5.064 76.8815 4.28 76.6895 3.704C76.5295 3.128 76.2895 2.68 75.9695 2.36C75.6815 2.04 75.3135 1.816 74.8655 1.688C74.4175 1.56 73.9215 1.464 73.3775 1.4H93.7775L95.1695 9.56C95.0415 9.176 94.8495 8.552 94.5935 7.688C94.3695 6.824 93.9535 5.96 93.3455 5.096C92.7375 4.232 91.8895 3.48 90.8015 2.84C89.7135 2.168 88.2415 1.832 86.3855 1.832H80.8175V17.096H87.1055C87.8735 17.096 88.4815 16.952 88.9295 16.664C89.3775 16.344 89.7135 15.96 89.9375 15.512C90.1935 15.064 90.3695 14.584 90.4655 14.072C90.5935 13.528 90.6895 13.032 90.7535 12.584V22.04C90.6895 21.592 90.5935 21.112 90.4655 20.6C90.3695 20.088 90.1935 19.608 89.9375 19.16C89.7135 18.68 89.3775 18.296 88.9295 18.008C88.4815 17.688 87.8735 17.528 87.1055 17.528H80.8175V30.536C80.8175 31.432 80.8495 32.152 80.9135 32.696C81.0095 33.208 81.2015 33.608 81.4895 33.896C81.7775 34.184 82.2095 34.376 82.7855 34.472C83.3935 34.536 84.2095 34.568 85.2335 34.568H86.9615C88.8175 34.568 90.2895 34.248 91.3775 33.608C92.4655 32.936 93.3135 32.168 93.9215 31.304C94.5295 30.44 94.9455 29.576 95.1695 28.712C95.4255 27.848 95.6175 27.224 95.7455 26.84L94.3535 34.952ZM118.083 30.344C118.083 31.336 118.163 32.12 118.323 32.696C118.515 33.272 118.771 33.72 119.091 34.04C119.411 34.36 119.795 34.584 120.243 34.712C120.691 34.84 121.171 34.936 121.683 35H110.643C111.187 34.936 111.683 34.84 112.131 34.712C112.579 34.584 112.947 34.36 113.235 34.04C113.555 33.72 113.795 33.272 113.955 32.696C114.147 32.12 114.243 31.336 114.243 30.344V6.056C114.243 5.064 114.147 4.28 113.955 3.704C113.795 3.128 113.555 2.68 113.235 2.36C112.947 2.04 112.579 1.816 112.131 1.688C111.683 1.56 111.187 1.464 110.643 1.4H131.043L132.435 9.56C132.307 9.176 132.115 8.552 131.859 7.688C131.635 6.824 131.219 5.96 130.611 5.096C130.003 4.232 129.155 3.48 128.067 2.84C126.979 2.168 125.507 1.832 123.651 1.832H118.083V17.096H124.371C125.139 17.096 125.747 16.952 126.195 16.664C126.675 16.344 127.027 15.96 127.251 15.512C127.507 15.064 127.683 14.584 127.779 14.072C127.875 13.528 127.955 13.032 128.019 12.584V22.04C127.955 21.592 127.875 21.112 127.779 20.6C127.683 20.088 127.507 19.608 127.251 19.16C127.027 18.68 126.675 18.296 126.195 18.008C125.747 17.688 125.139 17.528 124.371 17.528H118.083V30.344ZM169.151 18.2C169.151 21.112 168.639 23.672 167.615 25.88C166.623 28.056 165.295 29.88 163.631 31.352C161.999 32.792 160.127 33.88 158.015 34.616C155.935 35.352 153.807 35.72 151.631 35.72C149.423 35.72 147.263 35.352 145.151 34.616C143.071 33.88 141.215 32.792 139.583 31.352C137.951 29.88 136.623 28.056 135.599 25.88C134.607 23.672 134.111 21.112 134.111 18.2C134.111 15.256 134.607 12.696 135.599 10.52C136.623 8.344 137.951 6.52 139.583 5.048C141.247 3.576 143.119 2.488 145.199 1.784C147.311 1.048 149.455 0.679998 151.631 0.679998C153.839 0.679998 155.983 1.048 158.063 1.784C160.175 2.488 162.047 3.576 163.679 5.048C165.311 6.52 166.623 8.344 167.615 10.52C168.639 12.696 169.151 15.256 169.151 18.2ZM137.951 15.128C137.951 18.488 138.399 21.416 139.295 23.912C140.191 26.376 141.343 28.44 142.751 30.104C144.191 31.768 145.807 33.016 147.599 33.848C149.423 34.648 151.247 35.048 153.071 35.048C154.639 35.048 156.159 34.744 157.631 34.136C159.103 33.528 160.399 32.616 161.519 31.4C162.671 30.184 163.583 28.68 164.255 26.888C164.959 25.096 165.311 23 165.311 20.6C165.343 17.432 164.895 14.648 163.967 12.248C163.071 9.816 161.871 7.8 160.367 6.2C158.895 4.6 157.231 3.4 155.375 2.6C153.519 1.768 151.663 1.352 149.807 1.352C148.271 1.352 146.783 1.64 145.343 2.216C143.903 2.76 142.639 3.608 141.551 4.76C140.463 5.912 139.583 7.352 138.911 9.08C138.271 10.808 137.951 12.824 137.951 15.128ZM196.45 34.424C196.034 34.776 195.522 35.048 194.914 35.24C194.338 35.432 193.746 35.528 193.138 35.528C192.53 35.528 191.938 35.448 191.362 35.288C190.818 35.16 190.29 34.904 189.778 34.52C189.266 34.136 188.77 33.592 188.29 32.888C187.81 32.152 187.346 31.208 186.898 30.056C186.45 28.936 186.018 28.04 185.602 27.368C185.186 26.664 184.754 26.12 184.306 25.736C183.89 25.352 183.458 25.096 183.01 24.968C182.562 24.808 182.082 24.728 181.57 24.728V24.632C183.362 24.632 184.85 24.072 186.034 22.952C187.25 21.832 188.162 20.424 188.77 18.728C189.378 17.032 189.682 15.208 189.682 13.256C189.682 11.272 189.378 9.432 188.77 7.736C188.194 6.04 187.298 4.632 186.082 3.512C184.866 2.392 183.362 1.832 181.57 1.832H181.474C180.994 1.832 180.578 1.88 180.226 1.976C179.906 2.04 179.634 2.216 179.41 2.504C179.218 2.792 179.074 3.208 178.978 3.752C178.882 4.264 178.834 4.968 178.834 5.864V30.344C178.834 31.336 178.914 32.12 179.074 32.696C179.266 33.272 179.506 33.72 179.794 34.04C180.114 34.36 180.498 34.584 180.946 34.712C181.394 34.84 181.89 34.936 182.434 35H171.346C171.89 34.936 172.386 34.84 172.834 34.712C173.282 34.584 173.65 34.36 173.938 34.04C174.258 33.72 174.498 33.272 174.658 32.696C174.85 32.12 174.946 31.336 174.946 30.344V6.056C174.946 5.064 174.85 4.28 174.658 3.704C174.498 3.128 174.258 2.68 173.938 2.36C173.65 2.04 173.282 1.816 172.834 1.688C172.386 1.56 171.89 1.464 171.346 1.4H181.57C184.194 1.4 186.386 1.96 188.146 3.08C189.938 4.168 191.298 5.56 192.226 7.256C193.186 8.92 193.714 10.744 193.81 12.728C193.938 14.712 193.634 16.568 192.898 18.296C192.194 19.992 191.074 21.448 189.538 22.664C188.034 23.88 186.13 24.552 183.826 24.68C185.714 24.84 187.17 25.304 188.194 26.072C189.218 26.84 190.146 28.104 190.978 29.864C191.778 31.528 192.498 32.744 193.138 33.512C193.81 34.248 194.546 34.616 195.346 34.616C195.73 34.616 196.098 34.552 196.45 34.424ZM224.639 33.704C221.759 35.016 218.783 35.672 215.711 35.672C213.439 35.672 211.247 35.304 209.135 34.568C207.023 33.832 205.151 32.744 203.519 31.304C201.887 29.864 200.575 28.072 199.583 25.928C198.591 23.784 198.095 21.304 198.095 18.488C198.095 15.608 198.607 13.064 199.631 10.856C200.655 8.648 201.999 6.808 203.663 5.336C205.359 3.832 207.279 2.696 209.423 1.928C211.599 1.16 213.839 0.775997 216.143 0.775997C218.255 0.775997 220.335 1.112 222.383 1.784C224.463 2.424 226.399 3.416 228.191 4.76L226.703 11.672C226.863 10.36 226.735 9.096 226.319 7.88C225.935 6.632 225.311 5.528 224.447 4.568C223.615 3.608 222.559 2.84 221.279 2.264C220.031 1.656 218.623 1.352 217.055 1.352C215.071 1.288 213.183 1.592 211.391 2.264C209.631 2.904 208.079 3.896 206.735 5.24C205.391 6.552 204.335 8.2 203.567 10.184C202.799 12.136 202.415 14.408 202.415 17C202.415 20.136 202.863 22.824 203.759 25.064C204.655 27.304 205.791 29.144 207.167 30.584C208.575 32.024 210.143 33.096 211.871 33.8C213.599 34.472 215.295 34.808 216.959 34.808C218.175 34.808 219.327 34.632 220.415 34.28C221.503 33.928 222.463 33.432 223.295 32.792C224.127 32.12 224.783 31.304 225.263 30.344C225.775 29.384 226.031 28.296 226.031 27.08V23.576C226.031 22.584 225.935 21.8 225.743 21.224C225.583 20.648 225.343 20.2 225.023 19.88C224.735 19.56 224.367 19.336 223.919 19.208C223.471 19.08 222.975 18.984 222.431 18.92H233.471C232.959 18.984 232.479 19.08 232.031 19.208C231.583 19.336 231.199 19.56 230.879 19.88C230.559 20.2 230.303 20.648 230.111 21.224C229.951 21.8 229.871 22.584 229.871 23.576V35.288C229.359 33.752 228.527 32.984 227.375 32.984C226.991 32.984 226.575 33.048 226.127 33.176C225.679 33.304 225.183 33.48 224.639 33.704ZM255.697 34.952V35H234.721C235.265 34.936 235.761 34.84 236.209 34.712C236.657 34.584 237.025 34.36 237.313 34.04C237.633 33.72 237.873 33.272 238.033 32.696C238.225 32.12 238.321 31.336 238.321 30.344V6.056C238.321 5.064 238.225 4.28 238.033 3.704C237.873 3.128 237.633 2.68 237.313 2.36C237.025 2.04 236.657 1.816 236.209 1.688C235.761 1.56 235.265 1.464 234.721 1.4H255.121L256.513 9.56C256.385 9.176 256.193 8.552 255.937 7.688C255.713 6.824 255.297 5.96 254.689 5.096C254.081 4.232 253.233 3.48 252.145 2.84C251.057 2.168 249.585 1.832 247.729 1.832H242.161V17.096H248.449C249.217 17.096 249.825 16.952 250.273 16.664C250.721 16.344 251.057 15.96 251.281 15.512C251.537 15.064 251.713 14.584 251.809 14.072C251.937 13.528 252.033 13.032 252.097 12.584V22.04C252.033 21.592 251.937 21.112 251.809 20.6C251.713 20.088 251.537 19.608 251.281 19.16C251.057 18.68 250.721 18.296 250.273 18.008C249.825 17.688 249.217 17.528 248.449 17.528H242.161V30.536C242.161 31.432 242.193 32.152 242.257 32.696C242.353 33.208 242.545 33.608 242.833 33.896C243.121 34.184 243.553 34.376 244.129 34.472C244.737 34.536 245.553 34.568 246.577 34.568H248.305C250.161 34.568 251.633 34.248 252.721 33.608C253.809 32.936 254.657 32.168 255.265 31.304C255.873 30.44 256.289 29.576 256.513 28.712C256.769 27.848 256.961 27.224 257.089 26.84L255.697 34.952Z" fill="black"/>
</svg>
